<svg width="658" height="429" xmlns="http://www.w3.org/2000/svg" xmlns:xlink="http://www.w3.org/1999/xlink" overflow="hidden"><g transform="translate(-67 -28)"><rect x="70" y="98" width="83" height="57" stroke="#00A390" stroke-width="2" stroke-miterlimit="8" fill="none"/><text font-family="Times New Roman,Times New Roman_MSFontService,sans-serif" font-weight="400" font-size="14" transform="translate(88.2857 115)">Original</text><text font-family="Times New Roman,Times New Roman_MSFontService,sans-serif" font-weight="400" font-size="14" transform="translate(96.7857 131)">m</text><text font-family="Times New Roman,Times New Roman_MSFontService,sans-serif" font-weight="400" font-size="14" transform="translate(107.619 131)">esh</text><text font-family="Times New Roman,Times New Roman_MSFontService,sans-serif" font-weight="400" font-size="14" transform="translate(85.2057 148)">geometry</text><rect x="69.5001" y="369.5" width="65" height="52" stroke="#00A6D6" stroke-width="3" stroke-miterlimit="8" stroke-dasharray="3 3" fill="#C3F1FF"/><text font-family="Times New Roman,Times New Roman_MSFontService,sans-serif" font-weight="400" font-size="14" transform="translate(83.9818 392)">Image</text><text font-family="Times New Roman,Times New Roman_MSFontService,sans-serif" font-weight="400" font-size="14" transform="translate(81.2285 408)">prompt</text><rect x="69" y="270" width="65" height="57" stroke="#00A390" stroke-width="2" stroke-miterlimit="8" fill="none"/><text font-family="Times New Roman,Times New Roman_MSFontService,sans-serif" font-weight="400" font-size="14" transform="translate(88.6485 296)">Text</text><text font-family="Times New Roman,Times New Roman_MSFontService,sans-serif" font-weight="400" font-size="14" transform="translate(81.2285 312)">prompt</text><rect x="639.5" y="54.5001" width="84" height="57" stroke="#C3312F" stroke-width="3" stroke-miterlimit="8" stroke-dasharray="3 3" fill="#FFFFFF"/><text font-family="Times New Roman,Times New Roman_MSFontService,sans-serif" font-weight="400" font-size="14" transform="translate(653.974 79)">Text2Tex</text><text font-family="Times New Roman,Times New Roman_MSFontService,sans-serif" font-weight="400" font-size="14" transform="translate(658.641 95)">pipeline</text><rect x="500" y="54" width="84" height="57" stroke="#00A390" stroke-width="2" stroke-miterlimit="8" fill="none"/><text font-family="Times New Roman,Times New Roman_MSFontService,sans-serif" font-weight="700" font-size="14" transform="translate(521.677 71)">Target</text><text font-family="Times New Roman,Times New Roman_MSFontService,sans-serif" font-weight="700" font-size="14" transform="translate(526.257 87)">mesh</text><text font-family="Times New Roman,Times New Roman_MSFontService,sans-serif" font-weight="700" font-size="14" transform="translate(513.924 104)">geometry</text><rect x="385" y="155" width="84" height="57" stroke="#00A390" stroke-width="2" stroke-miterlimit="8" fill="none"/><text font-family="Times New Roman,Times New Roman_MSFontService,sans-serif" font-weight="400" font-size="14" transform="translate(405.481 181)">Texture</text><text font-family="Times New Roman,Times New Roman_MSFontService,sans-serif" font-weight="400" font-size="14" transform="translate(412.728 197)">MLP</text><rect x="242" y="98" width="84" height="57" stroke="#00A390" stroke-width="2" stroke-miterlimit="8" fill="none"/><text font-family="Times New Roman,Times New Roman_MSFontService,sans-serif" font-weight="400" font-size="14" transform="translate(256.354 115)">Positional</text><text font-family="Times New Roman,Times New Roman_MSFontService,sans-serif" font-weight="400" font-size="14" transform="translate(258.687 131)">encoding</text><text font-family="Times New Roman,Times New Roman_MSFontService,sans-serif" font-weight="400" font-size="14" transform="translate(256.441 148)">&amp; TDAM</text><rect x="502" y="155" width="82" height="57" stroke="#00A390" stroke-width="2" stroke-miterlimit="8" fill="none"/><text font-family="Times New Roman,Times New Roman_MSFontService,sans-serif" font-weight="700" font-size="14" transform="translate(522.872 172)">Target</text><text font-family="Times New Roman,Times New Roman_MSFontService,sans-serif" font-weight="700" font-size="14" transform="translate(527.459 188)">mesh</text><text font-family="Times New Roman,Times New Roman_MSFontService,sans-serif" font-weight="700" font-size="14" transform="translate(521.705 205)">texture</text><rect x="500" y="270" width="85" height="57" stroke="#00A390" stroke-width="2" stroke-miterlimit="8" fill="none"/><text font-family="Times New Roman,Times New Roman_MSFontService,sans-serif" font-weight="400" font-size="14" transform="translate(509.856 287)">Augmented</text><text font-family="Times New Roman,Times New Roman_MSFontService,sans-serif" font-weight="400" font-size="14" transform="translate(518.023 303)">rendered</text><text font-family="Times New Roman,Times New Roman_MSFontService,sans-serif" font-weight="400" font-size="14" transform="translate(522.69 320)">images</text><rect x="434" y="219" width="116" height="43" fill="#FFFFFF"/><text font-family="Times New Roman,Times New Roman_MSFontService,sans-serif" font-weight="400" font-size="14" transform="translate(443.199 238)">Randomly</text><text font-family="Times New Roman,Times New Roman_MSFontService,sans-serif" font-weight="400" font-size="14" transform="translate(443.199 254)">selected views</text><rect x="384" y="270" width="85" height="57" stroke="#00A390" stroke-width="2" stroke-miterlimit="8" fill="#FFFFFF"/><text font-family="Times New Roman,Times New Roman_MSFontService,sans-serif" font-weight="400" font-size="14" transform="translate(411.379 287)">CLIP</text><text font-family="Times New Roman,Times New Roman_MSFontService,sans-serif" font-weight="400" font-size="14" transform="translate(409.545 303)">image</text><text font-family="Times New Roman,Times New Roman_MSFontService,sans-serif" font-weight="400" font-size="14" transform="translate(404.465 320)">encoder</text><rect x="168" y="270" width="85" height="57" stroke="#00A390" stroke-width="2" stroke-miterlimit="8" fill="none"/><text font-family="Times New Roman,Times New Roman_MSFontService,sans-serif" font-weight="400" font-size="14" transform="translate(195.421 287)">CLIP</text><text font-family="Times New Roman,Times New Roman_MSFontService,sans-serif" font-weight="400" font-size="14" transform="translate(200.175 303)">text</text><text font-family="Times New Roman,Times New Roman_MSFontService,sans-serif" font-weight="400" font-size="14" transform="translate(188.508 320)">encoder</text><rect x="288" y="270" width="57" height="57" stroke="#00A390" stroke-width="2" stroke-miterlimit="8" fill="#FFFFFF"/><text font-family="Times New Roman,Times New Roman_MSFontService,sans-serif" font-weight="400" font-size="14" transform="translate(301.304 296)">CLIP</text><text font-family="Times New Roman,Times New Roman_MSFontService,sans-serif" font-weight="400" font-size="14" transform="translate(305.558 312)">loss</text><rect x="385" y="54" width="84" height="57" stroke="#00A390" stroke-width="2" stroke-miterlimit="8" fill="none"/><text font-family="Times New Roman,Times New Roman_MSFontService,sans-serif" font-weight="400" font-size="14" transform="translate(399.231 79)">Geometry</text><text font-family="Times New Roman,Times New Roman_MSFontService,sans-serif" font-weight="400" font-size="14" transform="translate(412.731 95)">MLP</text><rect x="168.5" y="369.5" width="85" height="53" stroke="#00A6D6" stroke-width="3" stroke-miterlimit="8" stroke-dasharray="3 3" fill="#FFFFFF"/><text font-family="Times New Roman,Times New Roman_MSFontService,sans-serif" font-weight="400" font-size="14" transform="translate(195.421 384)">CLIP</text><text font-family="Times New Roman,Times New Roman_MSFontService,sans-serif" font-weight="400" font-size="14" transform="translate(193.588 400)">image</text><text font-family="Times New Roman,Times New Roman_MSFontService,sans-serif" font-weight="400" font-size="14" transform="translate(188.508 417)">encoder</text><path d="M153 126 235.485 126 235.485 128 153 128ZM234.152 123 242.152 127 234.152 131Z" fill="#00A390"/><path d="M0.598788-0.800907 54.5567 39.54 53.3591 41.1418-0.598788 0.800907ZM55.2851 36.3389 59.2972 44.3328 50.4948 42.7461Z" fill="#00A390" transform="matrix(1 0 0 -1 326 126.333)"/><path d="M326.693 126.279 381.187 178.72 379.8 180.161 325.307 127.721ZM382.306 175.633 385.297 184.063 376.759 181.398Z" fill="#00A390"/><path d="M469 81 493.447 81.0001 493.447 83.0001 469 83ZM492.113 78.0001 500.113 82.0001 492.113 86.0001Z" fill="#00A390"/><path d="M469 183 493.447 183 493.447 185 469 185ZM492.113 180 500.113 184 492.113 188Z" fill="#00A390"/><path d="M111 98.3328 111 29.0001 543.301 29.0001 543.301 47.3334 541.301 47.3334 541.301 30.0001 542.301 31.0001 112 31.0001 113 30.0001 113 98.3328ZM546.301 46.0001 542.301 54.0001 538.301 46.0001Z" fill="#00A390"/><path d="M533 246.5 538.75 246.5 538.75 226 550.25 226 550.25 246.5 556 246.5 544.5 258Z" stroke="#00A390" stroke-width="2" stroke-miterlimit="8" fill="none" fill-rule="evenodd"/><path d="M531.507 128.002 540.002 128.002 540.002 119.507 547.998 119.507 547.998 128.002 556.493 128.002 556.493 135.998 547.998 135.998 547.998 144.493 540.002 144.493 540.002 135.998 531.507 135.998Z" stroke="#00A390" stroke-width="2" stroke-miterlimit="8" fill="none" fill-rule="evenodd"/><path d="M500.113 299.02 475.666 299.004 475.667 297.004 500.114 297.02ZM476.997 302.005 469 298 477.003 294.005Z" fill="#00A390"/><path d="M2.70866e-06-1 32.093-0.999913 32.093 1.00009-2.70866e-06 1ZM30.7597-3.99992 38.7597 0.000104987 30.7597 4.00008Z" fill="#00A390" transform="matrix(-1 0 0 1 383.76 298)"/><path d="M0.000628791-1 27.896-0.98246 27.8947 1.01754-0.000628791 1ZM26.5645-3.9833 34.562 0.0217323 26.5595 4.0167Z" fill="#00A390" transform="matrix(1 0 0 -1 253 298.022)"/><path d="M0.00709573-0.999975 27.9027-0.80203 27.8885 1.19792-0.00709573 0.999975ZM26.5907-3.81142 34.5621 0.245249 26.5339 4.18838Z" fill="#00A390" transform="matrix(1 0 0 -1 134 298.245)"/><path d="M134.512 394 137.512 394.023 137.488 397.023 134.488 397ZM140.511 394.046 143.511 394.07 143.488 397.07 140.488 397.046ZM146.511 394.093 149.511 394.116 149.488 397.116 146.488 397.093ZM152.511 394.139 155.511 394.162 155.488 397.162 152.488 397.139ZM158.511 394.186 161.511 394.209 161.488 397.209 158.488 397.185ZM160.097 391.198 169.062 395.767 160.028 400.197Z" fill="#00A6D6"/><path d="M0-1.5 3-1.5 3 1.5 0 1.5ZM6-1.5 9-1.5 9 1.5 6 1.5ZM12-1.5 15-1.5 15 1.5 12 1.5ZM18-1.5 21-1.5 21 1.5 18 1.5ZM24-1.5 27-1.5 27 1.5 24 1.5ZM30-1.5 33-1.5 33 1.5 30 1.5ZM36-1.5 39-1.5 39 1.5 36 1.5ZM42-1.5 45-1.5 45 1.5 42 1.5ZM48-1.5 51-1.5 51 1.5 48 1.5ZM54-1.5 57-1.5 57 1.5 54 1.5ZM60-1.5 63-1.5 63 1.5 60 1.5ZM64.9909 2.50908 64.9909 5.50908 61.9909 5.50908 61.9909 2.50908ZM64.9909 8.50908 64.9909 11.5091 61.9909 11.5091 61.9909 8.50908ZM64.9909 14.5091 64.9909 17.5091 61.9909 17.5091 61.9909 14.5091ZM64.9909 20.5091 64.9909 23.5091 61.9909 23.5091 61.9909 20.5091ZM64.9909 26.5091 64.9909 29.5091 61.9909 29.5091 61.9909 26.5091ZM64.9909 32.5091 64.9909 35.5091 61.9909 35.5091 61.9909 32.5091ZM64.9909 38.5091 64.9909 41.5091 61.9909 41.5091 61.9909 38.5091ZM64.9909 44.5091 64.9909 47.5091 61.9909 47.5091 61.9909 44.5091ZM64.9909 50.5091 64.9909 53.5091 61.9909 53.5091 61.9909 50.5091ZM64.9909 56.5091 64.9909 59.5091 61.9909 59.5091 61.9909 56.5091ZM67.9909 59.4766 63.4909 68.4766 58.9909 59.4766Z" fill="#00A6D6" transform="matrix(1 0 0 -1 253.5 395.977)"/><path d="M584.5 81.0001 587.5 81.0001 587.5 84.0001 584.5 84.0001ZM590.5 81.0001 593.5 81.0001 593.5 84.0001 590.5 84.0001ZM596.5 81.0001 599.5 81.0001 599.5 84.0001 596.5 84.0001ZM602.5 81.0001 605.5 81.0001 605.5 84.0001 602.5 84.0001ZM608.5 81.0001 611.5 81.0001 611.5 84.0001 608.5 84.0001ZM614.5 81.0001 617.5 81.0001 617.5 84.0001 614.5 84.0001ZM620.5 81.0001 623.5 81.0001 623.5 84.0001 620.5 84.0001ZM626.5 81.0001 629.5 81.0001 629.5 84.0001 626.5 84.0001ZM632.5 81.0001 632.638 81.0001 632.638 84.0001 632.5 84.0001ZM631.138 78.0001 640.138 82.5002 631.138 87.0001Z" fill="#C3312F"/><rect x="640.5" y="155.5" width="82" height="57" stroke="#C3312F" stroke-width="3" stroke-miterlimit="8" stroke-dasharray="3 3" fill="none"/><text font-family="Times New Roman,Times New Roman_MSFontService,sans-serif" font-weight="700" font-size="14" transform="translate(655.308 172)">Updated</text><text font-family="Times New Roman,Times New Roman_MSFontService,sans-serif" font-weight="700" font-size="14" transform="translate(665.474 188)">mesh</text><text font-family="Times New Roman,Times New Roman_MSFontService,sans-serif" font-weight="700" font-size="14" transform="translate(659.721 205)">texture</text><path d="M1.5-3.55223e-06 1.50001 3-1.49999 3-1.5 3.55223e-06ZM1.50001 6 1.50002 9-1.49998 9-1.49999 6ZM1.50003 12 1.50004 15-1.49996 15-1.49997 12ZM1.50004 18 1.50005 21-1.49995 21-1.49996 18ZM1.50006 24 1.50006 27-1.49994 27-1.49994 24ZM1.50007 30 1.50008 33-1.49992 33-1.49993 30ZM1.50009 36 1.50009 36.8328-1.49991 36.8328-1.49991 36ZM4.50008 35.3328 0.000104987 44.3328-4.49992 35.3328Z" fill="#C3312F" transform="matrix(-1 0 0 1 681.5 111.5)"/><rect x="395" y="365" width="83" height="17" stroke="#00A390" stroke-width="2" stroke-miterlimit="8" fill="none"/><text font-family="Times New Roman,Times New Roman_MSFontService,sans-serif" font-weight="400" font-size="14" transform="translate(491.234 379)">Original</text><text font-family="Times New Roman,Times New Roman_MSFontService,sans-serif" font-weight="400" font-size="14" transform="translate(541.234 379)">X</text><text font-family="Times New Roman,Times New Roman_MSFontService,sans-serif" font-weight="400" font-size="14" transform="translate(551.401 379)">-</text><text font-family="Times New Roman,Times New Roman_MSFontService,sans-serif" font-weight="400" font-size="14" transform="translate(556.067 379)">Mesh</text><rect x="395.5" y="426.5" width="83" height="17" stroke="#C3312F" stroke-width="3" stroke-miterlimit="8" stroke-dasharray="3 3" fill="#FFFFFF"/><text font-family="Times New Roman,Times New Roman_MSFontService,sans-serif" font-weight="400" font-size="14" transform="translate(492.106 440)">Combination of X</text><text font-family="Times New Roman,Times New Roman_MSFontService,sans-serif" font-weight="400" font-size="14" transform="translate(593.773 440)">-</text><text font-family="Times New Roman,Times New Roman_MSFontService,sans-serif" font-weight="400" font-size="14" transform="translate(598.44 440)">Mesh and Text2Tex</text><rect x="395.5" y="395.5" width="83" height="18" stroke="#00A6D6" stroke-width="3" stroke-miterlimit="8" stroke-dasharray="3 3" fill="#FFFFFF"/><text font-family="Times New Roman,Times New Roman_MSFontService,sans-serif" font-weight="400" font-size="14" transform="translate(492.926 409)">Image Control</text><text font-family="Times New Roman,Times New Roman_MSFontService,sans-serif" font-weight="400" font-size="14" transform="translate(577.426 409)">X</text><text font-family="Times New Roman,Times New Roman_MSFontService,sans-serif" font-weight="400" font-size="14" transform="translate(587.592 409)">-</text><text font-family="Times New Roman,Times New Roman_MSFontService,sans-serif" font-weight="400" font-size="14" transform="translate(592.259 409)">Mesh</text><rect x="387.5" y="355.5" width="331" height="100" stroke="#7F7F7F" stroke-width="1.33333" stroke-miterlimit="8" fill="none"/></g></svg>